<?xml version="1.0" encoding="utf-8"?>
<!-- Generator: Adobe Illustrator 21.0.2, SVG Export Plug-In . SVG Version: 6.00 Build 0)  -->
<svg version="1.1" id="Layer_1" xmlns="http://www.w3.org/2000/svg" xmlns:xlink="http://www.w3.org/1999/xlink" x="0px" y="0px"
	 viewBox="0 0 64 64" style="enable-background:new 0 0 64 64;" xml:space="preserve">
<style type="text/css">
	.st0{fill:#FFFFFF;}
</style>
<g>
	<path class="st0" d="M63.6,18c1-7.5,0.1-13.6-1.9-15.7s-8.1-3-15.7-1.9C51.5,4.9,59.1,12.5,63.6,18z"/>
	<path class="st0" d="M0.4,46.1c-1,7.5-0.1,13.6,1.9,15.6s8.1,2.9,15.6,1.9C12.4,59.1,4.9,51.6,0.4,46.1z"/>
	<path class="st0" d="M2.8,36C6.1,42,22,57.9,28,61.2c7.1-2.4,14.5-6.4,20.7-12.5c6.1-6.1,10.1-13.5,12.5-20.6
		C58,22.1,41.9,6,35.9,2.8c-7.1,2.4-14.5,6.4-20.6,12.5C9.2,21.5,5.2,28.9,2.8,36z M20.9,22.8l-1.4-1.4c-0.5-0.5-0.5-1.3,0-1.9
		c0.5-0.5,1.3-0.5,1.9,0l1.4,1.4c0.6-0.6,1.3-1.2,2-1.7l-1.6-1.6c-0.5-0.5-0.5-1.3,0-1.9c0.5-0.5,1.3-0.5,1.9,0l1.8,1.8
		c0.8-0.5,1.5-1,2.2-1.5l-1.3-1.3c-0.5-0.5-0.5-1.3,0-1.9c0.5-0.5,1.3-0.5,1.9,0l1.7,1.7c1.6-0.9,2.7-1.5,2.8-1.5
		c0.5-0.3,1.1-0.1,1.5,0.2c0.1,0.1,0.2,0.2,0.2,0.3c0.3,0.6,0.1,1.4-0.6,1.8c0,0-0.8,0.4-2,1.1l1.9,1.9c0.5,0.5,0.5,1.3,0,1.9
		c-0.5,0.5-1.3,0.5-1.9,0L31,18c-0.7,0.4-1.5,0.9-2.2,1.5l1.8,1.8c0.5,0.5,0.5,1.3,0,1.9s-1.3,0.5-1.9,0l-2.1-2.1
		c-0.7,0.5-1.4,1.1-2,1.7l2.3,2.3c0.5,0.5,0.5,1.3,0,1.9c-0.5,0.5-1.3,0.5-1.9,0l-2.3-2.3c-0.6,0.6-1.1,1.3-1.7,2l2.1,2.1
		c0.5,0.5,0.5,1.3,0,1.9c-0.5,0.5-1.3,0.5-1.9,0l-1.8-1.8c-0.5,0.8-1,1.5-1.5,2.2l2.4,2.4c0.5,0.5,0.5,1.3,0,1.9
		c-0.5,0.5-1.3,0.5-1.9,0l-1.9-1.9c-0.7,1.2-1.1,2-1.1,2c-0.3,0.6-1.1,0.9-1.8,0.6C13,35.8,12.7,35,13,34.3c0.1-0.1,0.6-1.2,1.5-2.8
		L13,29.7c-0.5-0.5-0.5-1.3,0-1.9c0.5-0.5,1.3-0.5,1.9,0l1.3,1.3c0.5-0.7,0.9-1.5,1.5-2.2l-1.8-1.8c-0.5-0.5-0.5-1.3,0-1.9
		c0.5-0.5,1.3-0.5,1.9,0l1.6,1.6C19.7,24.1,20.3,23.4,20.9,22.8z"/>
</g>
</svg>
