<?xml version="1.0" encoding="utf-8"?>
<!-- Generator: Adobe Illustrator 21.0.2, SVG Export Plug-In . SVG Version: 6.00 Build 0)  -->
<svg version="1.1" id="Layer_1" xmlns="http://www.w3.org/2000/svg" xmlns:xlink="http://www.w3.org/1999/xlink" x="0px" y="0px"
	 viewBox="0 0 64 64" style="enable-background:new 0 0 64 64;" xml:space="preserve">
<style type="text/css">
	.st0{fill:#FFFFFF;}
</style>
<g>
	<path class="st0" d="M15.9,15.2c5.4-0.9,11-1.8,16.7-5.2c-5-3.3-10.3-5.5-15.3-6.4C11,6.8,5.9,12.1,2.9,18.7
		C7.1,16.7,11.4,15.9,15.9,15.2z"/>
	<path class="st0" d="M35.4,8.1c2.3-1.9,3.4-4.6,3.7-7.3c-1.1-0.2-2.2-0.4-3.3-0.6C31-0.3,26.3,0.2,22,1.6C26.5,3,31,5.2,35.4,8.1z"
		/>
	<path class="st0" d="M37.9,9.9c1.8,1.3,3.5,2.8,5.2,4.3c3.2-2.5,6.3-4.8,9.4-6.9c-3-2.5-6.5-4.5-10.4-5.8
		C41.5,4.6,40.4,7.6,37.9,9.9z"/>
	<path class="st0" d="M61.3,19.3c-1.6-3.7-3.8-7-6.6-9.8c-3.1,2.1-6.3,4.4-9.5,6.9c1.6,1.7,3.2,3.5,4.7,5.4
		C54,18.9,58,18.6,61.3,19.3z"/>
	<path class="st0" d="M49.4,26.3c-2.5,3.2-3.4,8.4-4.4,14.4c-1.3,7.4-2.7,16-8,23c9.4-1.5,17.6-7.1,22.4-15.1
		C57.7,40.4,54.1,32.8,49.4,26.3z"/>
	<path class="st0" d="M40.6,16.2c-1.7-1.6-3.5-3-5.3-4.4c-6.5,4.3-12.8,5.3-18.9,6.3c-5.5,0.9-10.5,1.7-15.2,5
		c-0.5,1.6-0.8,3.3-1,5.1c-1,8.2,1.3,16.1,5.8,22.4C16,38.3,28.5,26,40.6,16.2z"/>
	<path class="st0" d="M51.7,24.1c4.3,6,7.8,12.9,9.8,20.2c1.1-2.7,1.9-5.6,2.3-8.6c0.5-4.6,0.1-9-1.2-13.2
		C59.7,21.7,55.7,21.4,51.7,24.1z"/>
	<path class="st0" d="M32.7,64c6.4-6.6,8-15.7,9.4-23.9c1.1-6.4,2.1-12.5,5.5-16.3c-1.5-1.9-3.1-3.7-4.8-5.5
		C30.6,28.2,18,40.6,7.9,53c5,5.8,12.1,9.8,20.3,10.7C29.7,64,31.2,64,32.7,64z"/>
</g>
</svg>
