<?xml version="1.0" encoding="utf-8"?>
<!-- Generator: Adobe Illustrator 21.0.2, SVG Export Plug-In . SVG Version: 6.00 Build 0)  -->
<svg version="1.1" id="Layer_2" xmlns="http://www.w3.org/2000/svg" xmlns:xlink="http://www.w3.org/1999/xlink" x="0px" y="0px"
	 viewBox="0 0 64 64" style="enable-background:new 0 0 64 64;" xml:space="preserve">
<style type="text/css">
	.st0{fill:#FFFFFF;}
</style>
<g>
	<path class="st0" d="M9.8,34.5c-0.3,0.7,2.4,4.6,8.1,10.3s9.6,8.3,10.7,8.4l3.4-1.8c-2,2-21.5-17.6-19.6-19.6L9.8,34.5
		C9.9,34.5,9.9,34.5,9.8,34.5z"/>
	<path class="st0" d="M9.4,53.3c-2.5-2.5-4.7-5-6.2-7c-1-1.3-1.6-2.4-1.9-3.2l-1.1,1.1C-2,46.4,16.7,65.2,19,62.9l1.4-1.4
		C17.6,61.2,12,55.9,9.4,53.3z"/>
	<path class="st0" d="M27.5,54.5c-3.7-0.8-16.7-13.3-19.1-18.6l-6.2,6.2c-0.2,0.6,2.5,4.6,8.2,10.2c5.7,5.7,9.4,8.3,10.7,8.5
		C23.1,60.9,26.9,57.1,27.5,54.5z M22,58.4c-0.4,0.4-1.1,0.4-1.5-0.1c-0.4-0.4-0.5-1.1-0.1-1.5l2.1-2.1c0.4-0.4,1.1-0.4,1.5,0.1
		c0.4,0.4,0.5,1.1,0.1,1.5L22,58.4z"/>
	<path class="st0" d="M59.9,11.9c-2.5-3.2-4.8-6.4-7.9-9.2c-2.2-2.2-5.5-2.2-8.6-1.2c-3.2,1.1-5.9,3.4-7.7,6.3l-9.3,14.7
		c-2.3,3.8-4.2,2.3-2.4-0.6l8-12.3c0,0-1.3-1.4-3.6-0.9c-3.6,0.7-10,9.1-10,9.1c-0.9,1.4-1.8,2.9-2.5,4.4l-2.7,8.2
		c-1.9,2,17.8,21.7,19.7,19.9c9.1-3,16.2-9.3,24.2-14.9C65.3,29.2,66.1,20.9,59.9,11.9z"/>
</g>
</svg>
