<?xml version="1.0" encoding="utf-8"?>
<!-- Generator: Adobe Illustrator 21.0.2, SVG Export Plug-In . SVG Version: 6.00 Build 0)  -->
<svg version="1.1" id="Layer_1" xmlns="http://www.w3.org/2000/svg" xmlns:xlink="http://www.w3.org/1999/xlink" x="0px" y="0px"
	 viewBox="0 0 64 64" style="enable-background:new 0 0 64 64;" xml:space="preserve">
<style type="text/css">
	.st0{fill:#FFFFFF;}
</style>
<path class="st0" d="M32,0C14.3,0,0,14.3,0,32s14.3,32,32,32s32-14.3,32-32S49.7,0,32,0z M57.7,18.7L47.5,24c-0.8-1.6-1.9-3-3.1-4.2
	l8.2-8.1C54.7,13.7,56.4,16.1,57.7,18.7z M34.8,29.2l7.5-7.4c1,1,1.9,2.2,2.6,3.5l-9.3,4.8C35.3,29.8,35.1,29.5,34.8,29.2z
	 M28.5,30.2l-9.3-4.9c0.7-1.3,1.5-2.4,2.5-3.4l7.5,7.4C28.9,29.5,28.6,29.8,28.5,30.2z M28.1,31.4c0,0.2-0.1,0.4-0.1,0.6
	s0,0.4,0.1,0.6l-10.4,1.5c-0.1-0.7-0.2-1.4-0.2-2.1c0-0.7,0.1-1.5,0.2-2.2L28.1,31.4z M28.5,33.8c0.2,0.4,0.4,0.7,0.7,1l-7.5,7.4
	c-1-1-1.9-2.2-2.5-3.5L28.5,33.8z M35.5,33.9l9.3,4.9c-0.7,1.3-1.5,2.4-2.5,3.5l-7.5-7.4C35.1,34.5,35.3,34.2,35.5,33.9z M35.9,32.6
	c0-0.2,0.1-0.4,0.1-0.6c0-0.2,0-0.4-0.1-0.6l10.4-1.5c0.1,0.7,0.2,1.4,0.2,2.1c0,0.7-0.1,1.5-0.2,2.2L35.9,32.6z M36.7,3.4
	c2.9,0.5,5.7,1.4,8.2,2.6l-5.1,10.3c-1.5-0.8-3.2-1.3-4.9-1.6L36.7,3.4z M38.4,19l-4.7,9.4c-0.4-0.2-0.7-0.3-1.1-0.4l1.7-10.4
	C35.8,17.9,37.2,18.4,38.4,19z M31.3,28.1c-0.4,0.1-0.8,0.2-1.1,0.4l-4.7-9.4c1.3-0.6,2.6-1.1,4.1-1.3L31.3,28.1z M27.2,3.4
	l1.9,11.4c-1.7,0.3-3.4,0.8-4.9,1.6L19,6.1C21.5,4.8,24.3,3.9,27.2,3.4z M11.3,11.7l8.2,8.1c-1.2,1.2-2.2,2.6-3,4.2L6.3,18.6
	C7.6,16,9.3,13.7,11.3,11.7z M3,32c0-1.5,0.1-2.9,0.3-4.4l11.4,1.7c-0.1,0.9-0.2,1.7-0.2,2.6c0,0.9,0.1,1.7,0.2,2.5L3.3,36.2
	C3.1,34.9,3,33.4,3,32z M6.2,45.3L16.5,40c0.8,1.6,1.8,3,3.1,4.2l-8.2,8.1C9.3,50.2,7.6,47.9,6.2,45.3z M27.2,60.6
	c-2.9-0.5-5.6-1.4-8.2-2.7l5.1-10.3c1.5,0.8,3.2,1.3,4.9,1.6L27.2,60.6z M25.5,44.9l4.7-9.4c0.3,0.2,0.7,0.3,1.1,0.4l-1.7,10.4
	C28.1,46,26.8,45.6,25.5,44.9z M32.6,35.9c0.4-0.1,0.8-0.2,1.1-0.4l4.7,9.4c-1.3,0.6-2.6,1.1-4.1,1.3L32.6,35.9z M36.7,60.6
	l-1.9-11.4c1.7-0.3,3.4-0.8,4.9-1.6L44.9,58C42.4,59.2,39.6,60.1,36.7,60.6z M52.6,52.4l-8.2-8.1c1.2-1.2,2.2-2.6,3-4.2l10.2,5.3
	C56.4,48,54.6,50.3,52.6,52.4z M49.3,34.6c0.1-0.9,0.2-1.7,0.2-2.6s-0.1-1.7-0.2-2.6l11.4-1.7c0.2,1.4,0.3,2.8,0.3,4.2
	c0,1.5-0.1,2.9-0.3,4.4L49.3,34.6z"/>
</svg>
