<?xml version="1.0" encoding="utf-8"?>
<!-- Generator: Adobe Illustrator 21.0.2, SVG Export Plug-In . SVG Version: 6.00 Build 0)  -->
<svg version="1.1" id="Layer_1" xmlns="http://www.w3.org/2000/svg" xmlns:xlink="http://www.w3.org/1999/xlink" x="0px" y="0px"
	 viewBox="0 0 64 64" style="enable-background:new 0 0 64 64;" xml:space="preserve">
<style type="text/css">
	.st0{fill:#FFFFFF;}
</style>
<g>
	<path class="st0" d="M31,25.2v-2.4c-5.1-4.1-10.5-6.8-15.6-7.9c-1,0.3-1.3,0.5-2.1,1.2c-1.5,6.5-1.6,11.3-0.3,17.2
		c0.8,0.7,1.2,0.9,2,1.2C18.9,32.3,29.5,26.1,31,25.2z"/>
	<path class="st0" d="M49.1,34.5c0.8-0.3,1.2-0.5,2-1.2c1.3-5.8,1.2-10.7-0.3-17.2c-0.9-0.8-1.1-0.9-2.1-1.2
		C43.5,16,38.1,18.7,33,22.8v2.4C34.5,26.1,45.1,32.3,49.1,34.5z"/>
	<path class="st0" d="M17.2,52.9c-2.3-5.8-3.4-11.7-3.2-16.7c-0.8-0.3-1.3-0.6-2-1.2c-4.1,2.8-7.1,6.2-9.1,10.1
		c0.8,1.7,1.7,3.4,2.8,4.9c3.3,1.3,7,2.4,11.2,3.2L17.2,52.9z"/>
	<path class="st0" d="M58.5,14.1c-3,0.4-4.9,1.4-5.7,2c1.4,6.5,1.5,11.5,0.3,17.4c3.9,2.7,6.9,5.8,9,9.4c1.2-3.4,1.9-7,1.9-10.8
		C64,25.4,62,19.2,58.5,14.1z"/>
	<path class="st0" d="M45.9,54.8l-0.5-0.5c-4.4,1.5-8.9,2.3-13.4,2.3s-8.9-0.8-13.4-2.3l-0.5,0.5c2.6,3.6,6,6.6,10.2,9
		c1.2,0.1,2.4,0.2,3.7,0.2c1.3,0,2.5-0.1,3.7-0.2C39.8,61.4,43.2,58.4,45.9,54.8z"/>
	<path class="st0" d="M48,36.2c-4-2.2-14.5-8.4-16-9.3c-1.5,0.9-12,7.1-16,9.3c-0.2,4.8,0.9,10.5,3.2,16.2c8.5,2.9,17.2,2.9,25.7,0
		C47.1,46.7,48.2,40.9,48,36.2z"/>
	<path class="st0" d="M58.4,50.1c1.1-1.5,2-3.2,2.8-4.9c-2-3.9-5-7.3-9.1-10.1c-0.8,0.6-1.3,0.9-2,1.2c0.2,5-0.9,10.8-3.2,16.6
		l0.4,0.4C51.3,52.5,55.1,51.4,58.4,50.1z"/>
	<path class="st0" d="M16,55.2c-2.9-0.6-5.5-1.3-8-2.1c4,4.6,9.3,8,15.3,9.7C20.4,60.6,17.9,58,16,55.2z"/>
	<path class="st0" d="M49.7,13.1c0.8,0.3,1.3,0.5,2.1,1.2c0.9-0.6,2.8-1.6,5.4-2.1c-3-3.8-6.7-6.9-11.1-9
		C49,7.3,49.6,11.5,49.7,13.1z"/>
	<path class="st0" d="M10.9,33.4C9.7,27.5,9.8,22.5,11.2,16c-0.8-0.5-2.8-1.6-5.7-2C2,19.2,0,25.4,0,32c0,3.8,0.7,7.4,1.9,10.8
		C4,39.2,7,36.1,10.9,33.4z"/>
	<path class="st0" d="M48,55.2c-2,2.9-4.4,5.4-7.3,7.6c6-1.7,11.3-5.1,15.3-9.7C53.6,53.9,50.9,54.6,48,55.2z"/>
	<path class="st0" d="M16.3,13.1C21.5,14.3,26.9,17,32,21c5.1-4,10.5-6.7,15.7-7.9c-0.1-2-1-7.3-5.8-11.5C38.7,0.5,35.4,0,32,0
		s-6.7,0.5-9.8,1.6C17.3,5.8,16.5,11.1,16.3,13.1z"/>
	<path class="st0" d="M12.3,14.3c0.8-0.6,1.3-0.9,2.1-1.2c0.1-1.7,0.7-5.8,3.6-9.9c-4.3,2.1-8.1,5.2-11.1,9
		C9.5,12.8,11.3,13.7,12.3,14.3z"/>
</g>
</svg>
