<?xml version="1.0" encoding="utf-8"?>
<!-- Generator: Adobe Illustrator 21.0.2, SVG Export Plug-In . SVG Version: 6.00 Build 0)  -->
<svg version="1.1" id="Layer_1" xmlns="http://www.w3.org/2000/svg" xmlns:xlink="http://www.w3.org/1999/xlink" x="0px" y="0px"
	 viewBox="0 0 64 64" style="enable-background:new 0 0 64 64;" xml:space="preserve">
<style type="text/css">
	.st0{fill:#FFFFFF;}
</style>
<g>
	<g>
		<path class="st0" d="M0.1,29.8C0,30.6,0,31.3,0,32c0,1.9,0.2,3.8,0.5,5.6c0.4-0.9,0.9-1.8,1.4-2.6C1.5,34.1,0.7,32.3,0.1,29.8z"/>
	</g>
	<g>
		<path class="st0" d="M34.8,25.7l-3.7,12.1c2.1,2.9,4.8,5.5,8.2,8.2c3.7-0.2,7.2-1.1,10.9-2.7c1.9-4.3,3.2-8.3,3.7-12
			c-2.2-3.4-4.9-6.5-8.2-9.1C41.7,22.9,38.1,24.1,34.8,25.7z"/>
	</g>
	<g>
		<path class="st0" d="M55.9,31.9c-0.6,3.6-1.7,7.4-3.5,11.5l3.9,4.4c1.5-0.6,3.1-1.4,4.8-2.3c1.9-4.1,3-8.6,3-13.5
			c0-1.7-0.1-3.3-0.4-4.9C61.8,29.7,58.5,31.6,55.9,31.9z"/>
	</g>
	<g>
		<path class="st0" d="M47,20.6c3.4,2.7,6.2,5.9,8.5,9.4c2.6-0.3,6.5-2.8,7.5-6c-1-5.9-3.9-10.8-8.2-14.4c-3.7-0.5-7.2,1.2-8.6,1.9
			C47,14.5,47.3,17.5,47,20.6z"/>
	</g>
	<g>
		<path class="st0" d="M9.1,31.2c0.3-4.4,1.2-8.3,2.7-11.9c-2.5-2.1-4.2-4.4-5.1-6.8C3.4,15.1,1.6,19,1.1,23.7
			c0.3,4.3,1.6,8,2.3,9.8C5,32.5,6.8,31.7,9.1,31.2z"/>
	</g>
	<path class="st0" d="M17.9,41.5c-3.7-2.4-6.9-4.6-8.5-8.3c-2.3,0.6-4.2,1.4-5.7,2.5C2.8,37.2,2,39,1.3,41l0,0
		c0.8,6,3.6,10.1,7.5,13c1.3,0,2.8,0,4.4-0.1c2-0.1,3.7-0.6,5.4-1.4C17,49.3,17.1,44.8,17.9,41.5z"/>
	<g>
		<path class="st0" d="M21.8,39.4c2.8-0.5,5.2-1,7.4-2.1l3.7-12.2c-1.8-3.5-4.2-6.2-7.2-8.1c-4.4-0.2-8.3,0.7-11.9,2.7
			c-1.6,3.7-2.5,7.7-2.8,12.2c1.3,3.5,4.3,5.6,8.2,8.1C20.1,39.7,20.9,39.6,21.8,39.4z"/>
	</g>
	<g>
		<path class="st0" d="M57,49.7c0,0.9-0.1,1.7-0.2,2.6c1.4-1,2.2-2.2,2.6-3.6C58.5,49,57.7,49.4,57,49.7z"/>
	</g>
	<g>
		<path class="st0" d="M13.1,17.8c3.7-2,7.8-3,12.2-2.8c1.2-3.3,3-6,5.5-8.2c-0.8-1.2-3.1-3.9-7.4-5.6C16.8,2,11.6,5.4,8.2,10.6
			C8.9,13.9,11.5,16.5,13.1,17.8z"/>
	</g>
	<path class="st0" d="M31.5,57.1c-0.9,0.2-1.7,0.2-2.5,0.2c-3.4,0-6.1-1.3-9-3.2c-1.8,1-3.8,1.6-5.9,1.8c-1.1,0-2.2,0.1-3.2,0.1
		c5.6,5,13,8,21.2,8c1.9,0,3.8-0.2,5.6-0.5l0,0C34.4,61.2,32.3,58.3,31.5,57.1z"/>
	<g>
		<path class="st0" d="M40.4,62.9c5.5-1.1,10.3-3.8,13.9-7.9c0.4-1.9,0.7-3.7,0.7-5.5L51.1,45c-3.9,1.7-7.6,2.7-11.4,2.9
			c-1.4,3.6-3.6,6.3-6.3,8.3C34.4,57.7,36.8,60.9,40.4,62.9z"/>
	</g>
	<g>
		<path class="st0" d="M31.6,55.1c2.7-1.7,4.8-4.3,6.2-7.7c-3.3-2.6-6-5.2-8.1-8.1c-2.4,1.1-4.9,1.6-7.6,2.1
			c-0.7,0.1-1.5,0.3-2.3,0.5c-0.8,3.4-0.8,7.8,0.9,10.4C24.9,55.1,27.8,55.8,31.6,55.1z"/>
	</g>
	<g>
		<path class="st0" d="M32.6,6c4.9-0.1,9,1.2,12.4,3.8c1.2-0.7,4.1-2.1,7.5-2.3C47,2.8,39.8,0,32,0c-1.9,0-3.7,0.2-5.5,0.5
			C29.9,2.3,31.9,4.6,32.6,6z"/>
	</g>
	<g>
		<path class="st0" d="M32.4,8c-2.3,2-4,4.5-5.2,7.6c3,2,5.3,4.6,7.2,8.1c3.2-1.5,6.7-2.7,10.6-3.5c0.2-2.9-0.1-5.7-0.9-8.6
			C40.9,9,37,7.9,32.4,8z"/>
	</g>
</g>
</svg>
