<?xml version="1.0" encoding="utf-8"?>
<!-- Generator: Adobe Illustrator 21.0.2, SVG Export Plug-In . SVG Version: 6.00 Build 0)  -->
<svg version="1.1" id="Layer_1" xmlns="http://www.w3.org/2000/svg" xmlns:xlink="http://www.w3.org/1999/xlink" x="0px" y="0px"
	 viewBox="0 0 64 64" style="enable-background:new 0 0 64 64;" xml:space="preserve">
<style type="text/css">
	.st0{fill:#FFFFFF;}
</style>
<g>
	<path class="st0" d="M22.5,62.8c8.5-2,18.2-6.5,26-14.3s12.3-17.5,14.3-26c-8.4,1.8-18.2,6.1-26.2,14.1S24.2,54.4,22.5,62.8z"/>
	<path class="st0" d="M34.7,34.7c8.4-8.4,19.3-13.3,28.6-15.2c1.3-7.8,0.4-14.3-2.1-16.9c-2.5-2.5-9-3.4-16.9-2.1
		c-1.8,9.4-6.7,20.2-15.2,28.6C20.8,37.7,10,42.6,0.6,44.4c-1.3,7.8-0.4,14.3,2.1,16.9c2.5,2.5,9,3.4,16.9,2.1
		C21.4,54,26.3,43.2,34.7,34.7z"/>
	<path class="st0" d="M41.5,1.2c-8.5,2-18.2,6.5-26,14.3S3.2,33,1.2,41.5c8.4-1.8,18.2-6.1,26.2-14.1S39.8,9.6,41.5,1.2z"/>
</g>
</svg>
