<?xml version="1.0" encoding="utf-8"?>
<!-- Generator: Adobe Illustrator 21.0.2, SVG Export Plug-In . SVG Version: 6.00 Build 0)  -->
<svg version="1.1" id="Layer_1" xmlns="http://www.w3.org/2000/svg" xmlns:xlink="http://www.w3.org/1999/xlink" x="0px" y="0px"
	 viewBox="0 0 64 64" style="enable-background:new 0 0 64 64;" xml:space="preserve">
<style type="text/css">
	.st0{fill:#FFFFFF;}
</style>
<g>
	<path class="st0" d="M60.3,20.3c-1.5,0.3-2.9,3.1-4.3,6.5c-0.4,1.1-0.9,2.4-1.5,3.7c-2.1,5.2-4.7,11.3-9.1,15.7
		c-7.4,7.4-19.5,7.4-26.9,0l-0.7-0.7c-7.4-7.4-7.4-19.5,0-26.9c4.4-4.4,10.5-7,15.7-9.1c1.3-0.6,2.5-1,3.7-1.5
		c3.4-1.4,6.2-2.8,6.5-4.3c0.1-0.5-0.1-1-0.4-1.6C31.9-2.2,18.5,0.2,9.4,9.4c-12.5,12.5-12.5,32.8,0,45.3s32.8,12.5,45.3,0
		c9.2-9.2,11.6-22.5,7.3-33.9C61.3,20.4,60.7,20.2,60.3,20.3z"/>
	<path class="st0" d="M46.6,4.3c-0.7,3.5-5.2,5.3-11,7.6C30.3,14,24.2,16.4,20,20.7c-6.2,6.2-6.2,16.4,0,22.6l0.7,0.7
		c6.2,6.2,16.4,6.2,22.6,0c4.2-4.2,6.7-10.3,8.8-15.7c2.3-5.7,4.1-10.3,7.6-11c0.2,0,0.4-0.1,0.7-0.1c-1.5-2.9-3.4-5.5-5.8-7.9
		c-2.4-2.4-5.1-4.3-7.9-5.8C46.7,3.8,46.7,4,46.6,4.3z"/>
</g>
</svg>
