<?xml version="1.0" encoding="utf-8"?>
<!-- Generator: Adobe Illustrator 21.0.2, SVG Export Plug-In . SVG Version: 6.00 Build 0)  -->
<svg version="1.1" id="Layer_1" xmlns="http://www.w3.org/2000/svg" xmlns:xlink="http://www.w3.org/1999/xlink" x="0px" y="0px"
	 viewBox="0 0 64 64" style="enable-background:new 0 0 64 64;" xml:space="preserve">
<style type="text/css">
	.st0{fill:#FFFFFF;}
</style>
<g id="Layer_1_1_">
	<g>
		<g>
			<path class="st0" d="M20.2,27.2c1.9,4.2,4.4,7.9,7.4,11c11.3-9,17.6-22.4,16.6-35.7C40.5,0.9,36.3,0,32,0c-0.1,0-0.1,0-0.2,0
				C30.9,10,27,19.1,20.2,27.2z"/>
		</g>
		<g>
			<path class="st0" d="M45.7,48.5c3.7,1.1,7.8,1.8,12.3,2.3c3.7-5.3,6-11.8,6-18.8c0-4.2-0.8-8.3-2.3-11.9
				C60.1,33.3,52.6,42.6,45.7,48.5z"/>
		</g>
		<g>
			<path class="st0" d="M29.1,39.5c3.9,3.6,8.7,6.4,14.3,8.3c7.5-6.1,16-16.3,16.6-31.4c-3.2-5.6-8-10.2-13.7-13
				C46.9,16.9,40.5,30.4,29.1,39.5z"/>
		</g>
		<g>
			<path class="st0" d="M27.5,10.8c1.2-3.4,1.9-7,2.3-10.7C19.4,0.8,10.3,6.5,5,14.9C12.9,9.7,22.4,8.9,27.5,10.8z"/>
		</g>
		<g>
			<path class="st0" d="M18.3,27.9c-4-0.7-8.1,0.3-11.5,2.7c4.7,15.7,19.6,30.2,37.9,30.7c4.6-2,8.6-5,11.7-8.7
				C37.6,50.6,24.8,42.3,18.3,27.9z"/>
		</g>
		<g>
			<path class="st0" d="M4.7,29.8c4-3.3,9-4.6,13.9-3.8c3.6-4.2,6.3-8.6,8.2-13.3c-4.8-1.7-15.9-1-24,6.3C1,22.9,0,27.3,0,32
				c0,1.1,0.1,2.2,0.2,3.3C1.3,33.2,2.8,31.3,4.7,29.8z"/>
		</g>
		<g>
			<path class="st0" d="M5.2,32c-2.1,1.9-3.6,4.3-4.4,7C4,53.3,16.7,64,32,64c2.8,0,5.5-0.4,8.1-1C23.3,60.4,10,46.8,5.2,32z"/>
		</g>
	</g>
</g>
<g id="Layer_2">
</g>
</svg>
