<svg xmlns="http://www.w3.org/2000/svg" width="32" height="32" viewBox="0 0 32 32" version="1.1"><path d="" stroke="none" fill="#080404" fill-rule="evenodd"/><path d="M 7.750 6.132 L 1 11.206 1 12.103 L 1 13 2.500 13 L 4 13 4 19 L 4 25 3 25 L 2 25 2 28 L 2 31 16 31 L 30 31 30 28 L 30 25 29 25 L 28 25 28 19 L 28 13 29.500 13 L 31 13 31 12.018 L 31 11.036 24.250 6.053 L 17.500 1.069 16 1.064 L 14.500 1.058 7.750 6.132 M 6 19 L 6 25 7.500 25 L 9 25 9 19 L 9 13 7.500 13 L 6 13 6 19 M 23 19 L 23 25 24.500 25 L 26 25 26 19 L 26 13 24.500 13 L 23 13 23 19 M 13.667 15.667 L 13 16.333 13 17.699 L 13 19.064 15.250 19.969 L 17.500 20.873 15.750 20.937 L 14 21 14 22.070 L 14 23.139 16.240 22.820 L 18.480 22.500 18.814 20.745 L 19.148 18.990 16.824 18.059 L 14.500 17.127 16.250 17.063 L 18 17 18 16 L 18 15 16.167 15 L 14.333 15 13.667 15.667" stroke="none" fill="#040404" fill-rule="evenodd"/></svg>